<mxfile host="app.diagrams.net" modified="2024-06-17T17:10:37.455Z" agent="Mozilla/5.0 (Windows NT 10.0; Win64; x64) AppleWebKit/537.36 (KHTML, like Gecko) Chrome/125.0.0.0 Safari/537.36" etag="riKb8YKfiFRP64Z9lq7H" version="24.5.4" type="github">
  <diagram id="C5RBs43oDa-KdzZeNtuy" name="Page-1">
    <mxGraphModel dx="1674" dy="772" grid="1" gridSize="10" guides="1" tooltips="1" connect="1" arrows="1" fold="1" page="1" pageScale="1" pageWidth="827" pageHeight="1169" math="0" shadow="0">
      <root>
        <mxCell id="WIyWlLk6GJQsqaUBKTNV-0" />
        <mxCell id="WIyWlLk6GJQsqaUBKTNV-1" parent="WIyWlLk6GJQsqaUBKTNV-0" />
        <mxCell id="OJ_hWvKQwcLApWBoBKt9-4" style="edgeStyle=orthogonalEdgeStyle;rounded=0;orthogonalLoop=1;jettySize=auto;html=1;exitX=0.5;exitY=1;exitDx=0;exitDy=0;entryX=0.5;entryY=0;entryDx=0;entryDy=0;" edge="1" parent="WIyWlLk6GJQsqaUBKTNV-1" source="OJ_hWvKQwcLApWBoBKt9-1" target="OJ_hWvKQwcLApWBoBKt9-2">
          <mxGeometry relative="1" as="geometry" />
        </mxCell>
        <mxCell id="OJ_hWvKQwcLApWBoBKt9-1" value="Початок" style="ellipse;whiteSpace=wrap;html=1;" vertex="1" parent="WIyWlLk6GJQsqaUBKTNV-1">
          <mxGeometry x="354" y="50" width="120" height="80" as="geometry" />
        </mxCell>
        <mxCell id="OJ_hWvKQwcLApWBoBKt9-6" style="edgeStyle=orthogonalEdgeStyle;rounded=0;orthogonalLoop=1;jettySize=auto;html=1;exitX=0.5;exitY=1;exitDx=0;exitDy=0;entryX=0.5;entryY=0;entryDx=0;entryDy=0;" edge="1" parent="WIyWlLk6GJQsqaUBKTNV-1" source="OJ_hWvKQwcLApWBoBKt9-2" target="OJ_hWvKQwcLApWBoBKt9-5">
          <mxGeometry relative="1" as="geometry" />
        </mxCell>
        <mxCell id="OJ_hWvKQwcLApWBoBKt9-2" value="&#xa;Визначити розміри масиву (4, 5)&#xa;&#xa;" style="shape=parallelogram;perimeter=parallelogramPerimeter;whiteSpace=wrap;html=1;fixedSize=1;" vertex="1" parent="WIyWlLk6GJQsqaUBKTNV-1">
          <mxGeometry x="341" y="170" width="146" height="60" as="geometry" />
        </mxCell>
        <mxCell id="OJ_hWvKQwcLApWBoBKt9-8" style="edgeStyle=orthogonalEdgeStyle;rounded=0;orthogonalLoop=1;jettySize=auto;html=1;exitX=0.5;exitY=1;exitDx=0;exitDy=0;entryX=0.5;entryY=0;entryDx=0;entryDy=0;" edge="1" parent="WIyWlLk6GJQsqaUBKTNV-1" source="OJ_hWvKQwcLApWBoBKt9-5" target="OJ_hWvKQwcLApWBoBKt9-7">
          <mxGeometry relative="1" as="geometry" />
        </mxCell>
        <mxCell id="OJ_hWvKQwcLApWBoBKt9-5" value="&#xa;Ініціалізувати масив значеннями&#xa;&#xa;" style="shape=parallelogram;perimeter=parallelogramPerimeter;whiteSpace=wrap;html=1;fixedSize=1;" vertex="1" parent="WIyWlLk6GJQsqaUBKTNV-1">
          <mxGeometry x="334" y="270" width="160" height="60" as="geometry" />
        </mxCell>
        <mxCell id="OJ_hWvKQwcLApWBoBKt9-10" style="edgeStyle=orthogonalEdgeStyle;rounded=0;orthogonalLoop=1;jettySize=auto;html=1;exitX=0.5;exitY=1;exitDx=0;exitDy=0;entryX=0.5;entryY=0;entryDx=0;entryDy=0;" edge="1" parent="WIyWlLk6GJQsqaUBKTNV-1" source="OJ_hWvKQwcLApWBoBKt9-7" target="OJ_hWvKQwcLApWBoBKt9-9">
          <mxGeometry relative="1" as="geometry" />
        </mxCell>
        <mxCell id="OJ_hWvKQwcLApWBoBKt9-7" value="&#xa;Ініціалізувати вектор для середніх арифметичних значень&#xa;&#xa;" style="shape=parallelogram;perimeter=parallelogramPerimeter;whiteSpace=wrap;html=1;fixedSize=1;" vertex="1" parent="WIyWlLk6GJQsqaUBKTNV-1">
          <mxGeometry x="324" y="370" width="180" height="60" as="geometry" />
        </mxCell>
        <mxCell id="OJ_hWvKQwcLApWBoBKt9-12" style="edgeStyle=orthogonalEdgeStyle;rounded=0;orthogonalLoop=1;jettySize=auto;html=1;exitX=0.5;exitY=1;exitDx=0;exitDy=0;entryX=0.5;entryY=0;entryDx=0;entryDy=0;" edge="1" parent="WIyWlLk6GJQsqaUBKTNV-1" source="OJ_hWvKQwcLApWBoBKt9-9" target="OJ_hWvKQwcLApWBoBKt9-11">
          <mxGeometry relative="1" as="geometry" />
        </mxCell>
        <mxCell id="OJ_hWvKQwcLApWBoBKt9-9" value="&#xa;Цикл по рядках (i = 0 до rows - 1)&#xa;&#xa;" style="shape=parallelogram;perimeter=parallelogramPerimeter;whiteSpace=wrap;html=1;fixedSize=1;" vertex="1" parent="WIyWlLk6GJQsqaUBKTNV-1">
          <mxGeometry x="332" y="470" width="164" height="60" as="geometry" />
        </mxCell>
        <mxCell id="OJ_hWvKQwcLApWBoBKt9-14" style="edgeStyle=orthogonalEdgeStyle;rounded=0;orthogonalLoop=1;jettySize=auto;html=1;exitX=0.5;exitY=1;exitDx=0;exitDy=0;entryX=0.5;entryY=0;entryDx=0;entryDy=0;" edge="1" parent="WIyWlLk6GJQsqaUBKTNV-1" source="OJ_hWvKQwcLApWBoBKt9-11" target="OJ_hWvKQwcLApWBoBKt9-13">
          <mxGeometry relative="1" as="geometry" />
        </mxCell>
        <mxCell id="OJ_hWvKQwcLApWBoBKt9-11" value="&#xa;Ініціалізувати змінні: sum = 0, hasZero = false, countMultiplesOfFive = 0&#xa;&#xa;" style="shape=parallelogram;perimeter=parallelogramPerimeter;whiteSpace=wrap;html=1;fixedSize=1;" vertex="1" parent="WIyWlLk6GJQsqaUBKTNV-1">
          <mxGeometry x="309" y="570" width="210" height="60" as="geometry" />
        </mxCell>
        <mxCell id="OJ_hWvKQwcLApWBoBKt9-16" style="edgeStyle=orthogonalEdgeStyle;rounded=0;orthogonalLoop=1;jettySize=auto;html=1;exitX=0.5;exitY=1;exitDx=0;exitDy=0;entryX=0.5;entryY=0;entryDx=0;entryDy=0;" edge="1" parent="WIyWlLk6GJQsqaUBKTNV-1" source="OJ_hWvKQwcLApWBoBKt9-13" target="OJ_hWvKQwcLApWBoBKt9-15">
          <mxGeometry relative="1" as="geometry" />
        </mxCell>
        <mxCell id="OJ_hWvKQwcLApWBoBKt9-13" value="&lt;br&gt;Цикл по стовпцях (j = 0&lt;div&gt;&amp;nbsp;до cols - 1)&lt;br&gt;&lt;br&gt;&lt;/div&gt;" style="shape=parallelogram;perimeter=parallelogramPerimeter;whiteSpace=wrap;html=1;fixedSize=1;" vertex="1" parent="WIyWlLk6GJQsqaUBKTNV-1">
          <mxGeometry x="334" y="670" width="160" height="60" as="geometry" />
        </mxCell>
        <mxCell id="OJ_hWvKQwcLApWBoBKt9-22" style="edgeStyle=orthogonalEdgeStyle;rounded=0;orthogonalLoop=1;jettySize=auto;html=1;exitX=0.5;exitY=1;exitDx=0;exitDy=0;entryX=0.5;entryY=0;entryDx=0;entryDy=0;" edge="1" parent="WIyWlLk6GJQsqaUBKTNV-1" source="OJ_hWvKQwcLApWBoBKt9-15">
          <mxGeometry relative="1" as="geometry">
            <mxPoint x="414" y="920" as="targetPoint" />
          </mxGeometry>
        </mxCell>
        <mxCell id="OJ_hWvKQwcLApWBoBKt9-23" style="edgeStyle=orthogonalEdgeStyle;rounded=0;orthogonalLoop=1;jettySize=auto;html=1;exitX=0;exitY=0.5;exitDx=0;exitDy=0;entryX=0.5;entryY=0;entryDx=0;entryDy=0;" edge="1" parent="WIyWlLk6GJQsqaUBKTNV-1" source="OJ_hWvKQwcLApWBoBKt9-15" target="OJ_hWvKQwcLApWBoBKt9-17">
          <mxGeometry relative="1" as="geometry" />
        </mxCell>
        <mxCell id="OJ_hWvKQwcLApWBoBKt9-15" value="&lt;br&gt;Обчислити середнє значення&lt;div&gt;&amp;nbsp;рядка averages[i] = sum / cols&lt;br&gt;&lt;br&gt;&lt;/div&gt;" style="shape=parallelogram;perimeter=parallelogramPerimeter;whiteSpace=wrap;html=1;fixedSize=1;" vertex="1" parent="WIyWlLk6GJQsqaUBKTNV-1">
          <mxGeometry x="311" y="770" width="206" height="60" as="geometry" />
        </mxCell>
        <mxCell id="OJ_hWvKQwcLApWBoBKt9-28" style="edgeStyle=orthogonalEdgeStyle;rounded=0;orthogonalLoop=1;jettySize=auto;html=1;exitX=0.5;exitY=1;exitDx=0;exitDy=0;entryX=0;entryY=0.5;entryDx=0;entryDy=0;" edge="1" parent="WIyWlLk6GJQsqaUBKTNV-1" source="OJ_hWvKQwcLApWBoBKt9-17" target="OJ_hWvKQwcLApWBoBKt9-25">
          <mxGeometry relative="1" as="geometry" />
        </mxCell>
        <mxCell id="OJ_hWvKQwcLApWBoBKt9-17" value="&lt;div&gt;&lt;br&gt;&lt;/div&gt;Якщо hasZero, вивести countMultiplesOfFive для рядка&lt;div&gt;&lt;br&gt;&lt;/div&gt;" style="rhombus;whiteSpace=wrap;html=1;" vertex="1" parent="WIyWlLk6GJQsqaUBKTNV-1">
          <mxGeometry x="89" y="840" width="220" height="90" as="geometry" />
        </mxCell>
        <mxCell id="OJ_hWvKQwcLApWBoBKt9-30" style="edgeStyle=orthogonalEdgeStyle;rounded=0;orthogonalLoop=1;jettySize=auto;html=1;exitX=0.5;exitY=1;exitDx=0;exitDy=0;entryX=0.5;entryY=0;entryDx=0;entryDy=0;" edge="1" parent="WIyWlLk6GJQsqaUBKTNV-1" source="OJ_hWvKQwcLApWBoBKt9-25" target="OJ_hWvKQwcLApWBoBKt9-29">
          <mxGeometry relative="1" as="geometry" />
        </mxCell>
        <mxCell id="OJ_hWvKQwcLApWBoBKt9-25" value="&lt;br&gt;Кінець циклу&lt;div&gt;&amp;nbsp;по рядках&lt;br&gt;&lt;br&gt;&lt;/div&gt;" style="shape=parallelogram;perimeter=parallelogramPerimeter;whiteSpace=wrap;html=1;fixedSize=1;" vertex="1" parent="WIyWlLk6GJQsqaUBKTNV-1">
          <mxGeometry x="354" y="920" width="120" height="60" as="geometry" />
        </mxCell>
        <mxCell id="OJ_hWvKQwcLApWBoBKt9-32" style="edgeStyle=orthogonalEdgeStyle;rounded=0;orthogonalLoop=1;jettySize=auto;html=1;exitX=0.5;exitY=1;exitDx=0;exitDy=0;entryX=0.5;entryY=0;entryDx=0;entryDy=0;" edge="1" parent="WIyWlLk6GJQsqaUBKTNV-1" source="OJ_hWvKQwcLApWBoBKt9-29" target="OJ_hWvKQwcLApWBoBKt9-31">
          <mxGeometry relative="1" as="geometry" />
        </mxCell>
        <mxCell id="OJ_hWvKQwcLApWBoBKt9-29" value="&lt;br&gt;Вивести&amp;nbsp;&lt;div&gt;середні&amp;nbsp;&lt;/div&gt;&lt;div&gt;арифметичні значення&lt;br&gt;&lt;br&gt;&lt;/div&gt;" style="shape=parallelogram;perimeter=parallelogramPerimeter;whiteSpace=wrap;html=1;fixedSize=1;" vertex="1" parent="WIyWlLk6GJQsqaUBKTNV-1">
          <mxGeometry x="354" y="1020" width="120" height="60" as="geometry" />
        </mxCell>
        <mxCell id="OJ_hWvKQwcLApWBoBKt9-31" value="Кінець" style="ellipse;whiteSpace=wrap;html=1;" vertex="1" parent="WIyWlLk6GJQsqaUBKTNV-1">
          <mxGeometry x="354" y="1130" width="120" height="80" as="geometry" />
        </mxCell>
      </root>
    </mxGraphModel>
  </diagram>
</mxfile>
